#!OML:ASF H:\ManfredETheater\Project 1\Capture day 1\Session 1\subject.ASF
:FULLY-SPECIFIED
:DEGREES
79
root -0.0711836 19.6356 -12.5412 10.8341 -3.22027 -4.35797
lowerback 14.4752 2.80302 4.77049
upperback -1.10703 4.68115 1.30072
thorax -9.05943 2.04918 -2.30956
lowerneck -19.0161 -2.64672 -3.48546
upperneck 8.94171 -2.66418 -0.00162621
head 5.82379 -1.42175 0.281036
rclavicle -4.24405e-014 -1.63003e-014
rhumerus -45.007 16.3784 -95.9875
rradius 117.048
rwrist -5.42325
rhand -23.8918 14.3667
rfingers 7.12502
rthumb 2.58184 -15.5975
lclavicle -4.24405e-014 -1.63003e-014
lhumerus -78.6466 -8.04431 96.5853
lradius 107.813
lwrist 16.9174
lhand -21.0348 -17.5743
lfingers 7.12502
lthumb 5.34075 12.3384
rfemur 8.40019 -0.887838 28.1618
rtibia 12.9218
rfoot 24.6073 -9.09068
rtoes -15.465
lfemur -75.8247 2.09574 -18.6271
ltibia 72.0934
lfoot -16.3448 -9.97219
ltoes -17.3408
80
root -0.0918881 19.8327 -12.0665 10.6865 -3.10013 -4.73967
lowerback 14.4334 2.80528 5.11769
upperback -1.10824 4.75161 1.4057
thorax -9.01466 2.07041 -2.40242
lowerneck -19.2169 -2.72785 -3.65234
upperneck 9.31749 -2.72942 0.0691595
head 5.98089 -1.45677 0.318482
rclavicle -9.64106e-015 -2.42517e-014
rhumerus -45.6144 16.0181 -96.0808
rradius 115.784
rwrist -6.07486
rhand -23.7943 13.7348
rfingers 7.12502
rthumb 2.67601 -16.2282
lclavicle -9.64106e-015 -2.42517e-014
lhumerus -78.1696 -7.15419 96.3275
lradius 107.151
lwrist 16.4454
lhand -20.6924 -17.4545
lfingers 7.12502
lthumb 5.67135 12.4496
rfemur 7.44341 -1.22366 28.3275
rtibia 16.0874
rfoot 24.1336 -8.55794
rtoes -14.4403
lfemur -74.0327 2.10858 -18.6098
ltibia 67.6738
lfoot -15.3875 -9.70378
ltoes -17.3676
81
root -0.114303 20.0174 -11.5946 10.4587 -3.08391 -5.13757
lowerback 14.4676 2.8221 5.39677
upperback -1.05999 4.83444 1.5418
thorax -8.96604 2.10244 -2.42958
lowerneck -19.4008 -2.78264 -3.80367
upperneck 9.61553 -2.76199 0.125764
head 6.10982 -1.47599 0.353056
rclavicle -6.74874e-014 -3.06128e-014
rhumerus -46.2018 15.6257 -96.128
rradius 114.326
rwrist -6.59987
rhand -23.5655 13.0824
rfingers 7.12502
rthumb 2.897 -16.8777
lclavicle -6.74874e-014 -3.06128e-014
lhumerus -77.5009 -6.33945 96.1941
lradius 106.47
lwrist 15.8922
lhand -20.3826 -17.3218
lfingers 7.12502
lthumb 5.97039 12.574
rfemur 6.17293 -1.58867 28.5181
rtibia 20.055
rfoot 22.7676 -8.23849
rtoes -14.0591
lfemur -72.0486 2.2696 -18.5777
ltibia 63.6128
lfoot -14.4238 -9.47182
ltoes -17.4037
82
root -0.138276 20.1892 -11.1248 10.1447 -3.16912 -5.5143
lowerback 14.5778 2.84842 5.57623
upperback -0.968511 4.9168 1.69331
thorax -8.92242 2.13981 -2.38813
lowerneck -19.5467 -2.80718 -3.92639
upperneck 9.83188 -2.76203 0.174641
head 6.20553 -1.47841 0.38515
rclavicle -1.8487e-014 -3.02153e-014
rhumerus -46.7732 15.2047 -96.1474
rradius 112.692
rwrist -6.92039
rhand -23.2266 12.4509
rfingers 7.12502
rthumb 3.22423 -17.5045
lclavicle -1.8487e-014 -3.02153e-014
lhumerus -76.6799 -5.60921 96.1973
lradius 105.807
lwrist 15.3563
lhand -20.1519 -17.1836
lfingers 7.12502
lthumb 6.19314 12.7059
rfemur 4.76139 -1.94595 28.6893
rtibia 24.447
rfoot 21.0382 -8.30243
rtoes -14.1054
lfemur -69.9032 2.53043 -18.5331
ltibia 59.985
lfoot -13.5606 -9.30065
ltoes -17.5443
83
root -0.163463 20.3483 -10.6557 9.74425 -3.33834 -5.83012
lowerback 14.7281 2.87634 5.64021
upperback -0.828395 4.98053 1.83807
thorax -8.85831 2.17498 -2.28698
lowerneck -19.6384 -2.79991 -4.00962
upperneck 9.95916 -2.73317 0.227683
head 6.26278 -1.46423 0.416783
rclavicle -6.95746e-015 1.03368e-014
rhumerus -47.3172 14.756 -96.1543
rradius 110.892
rwrist -7.00496
rhand -22.8315 11.8838
rfingers 7.12502
rthumb 3.60584 -18.0655
lclavicle -6.95746e-015 1.03368e-014
lhumerus -75.7215 -4.98535 96.332
lradius 105.189
lwrist 14.9322
lhand -20.0194 -17.044
lfingers 7.12502
lthumb 6.3211 12.8416
rfemur 3.29142 -2.29377 28.7938
rtibia 29.0552
rfoot 19.2664 -8.74386
rtoes -14.2417
lfemur -67.6223 2.82708 -18.4811
ltibia 56.8412
lfoot -12.8701 -9.19299
ltoes -17.7576
84
root -0.189313 20.495 -10.1867 9.2731 -3.5774 -6.04924
lowerback 14.8985 2.90009 5.57632
upperback -0.654236 5.01298 1.95484
thorax -8.77848 2.20137 -2.1386
lowerneck -19.6674 -2.76002 -4.0316
upperneck 10.0177 -2.67973 0.278321
head 6.28632 -1.43539 0.441862
rclavicle 4.96962e-016 1.23246e-014
rhumerus -47.8368 14.2839 -96.1641
rradius 108.935
rwrist -6.87144
rhand -22.4471 11.4129
rfingers 7.12502
rthumb 3.97703 -18.5297
lclavicle 4.96962e-016 1.23246e-014
lhumerus -74.6531 -4.48597 96.5842
lradius 104.638
lwrist 14.7056
lhand -19.9467 -16.9237
lfingers 7.12502
lthumb 6.39129 12.9599
rfemur 1.78611 -2.64256 28.7851
rtibia 33.7544
rfoot 17.6723 -9.4682
rtoes -13.9308
lfemur -65.2418 3.11207 -18.4439
ltibia 54.1977
lfoot -12.3921 -9.12914
ltoes -18.0426
85
root -0.215415 20.6289 -9.71715 8.73744 -3.84326 -6.14001
lowerback 15.0758 2.90661 5.38789
upperback -0.457413 4.99516 2.02488
thorax -8.68698 2.20856 -1.96032
lowerneck -19.6378 -2.6931 -3.99614
upperneck 10.0384 -2.60952 0.337271
head 6.28707 -1.39514 0.463272
rclavicle -1.41137e-014 1.59028e-015
rhumerus -48.3389 13.7904 -96.1843
rradius 106.829
rwrist -6.54523
rhand -22.15 11.0492
rfingers 7.12502
rthumb 4.26396 -18.8879
lclavicle -1.41137e-014 1.59028e-015
lhumerus -73.4951 -4.13622 96.9304
lradius 104.168
lwrist 14.7153
lhand -19.9041 -16.8168
lfingers 7.12502
lthumb 6.43239 13.0656
rfemur 0.263323 -3.01908 28.6296
rtibia 38.4577
rfoot 16.2135 -10.3617
rtoes -13.297
lfemur -62.7807 3.32157 -18.4491
ltibia 52.0411
lfoot -12.1112 -9.08591
ltoes -18.341
86
root -0.241673 20.7495 -9.24675 8.1486 -4.09071 -6.08262
lowerback 15.2498 2.88385 5.08367
upperback -0.25163 4.91153 2.03571
thorax -8.59153 2.18759 -1.76643
lowerneck -19.5552 -2.60601 -3.9168
upperneck 10.0547 -2.52957 0.4178
head 6.27738 -1.3466 0.486311
rclavicle 8.94531e-016 6.75868e-015
rhumerus -48.827 13.2756 -96.2153
rradius 104.582
rwrist -6.08645
rhand -21.993 10.7835
rfingers 7.12502
rthumb 4.41556 -19.1505
lclavicle 8.94531e-016 6.75868e-015
lhumerus -72.2631 -3.95725 97.344
lradius 103.785
lwrist 14.9581
lhand -19.8279 -16.7345
lfingers 7.12502
lthumb 6.50599 13.1456
rfemur -1.27693 -3.4507 28.3074
rtibia 43.1023
rfoot 14.8174 -11.339
rtoes -12.4806
lfemur -60.2632 3.40831 -18.5284
ltibia 50.3352
lfoot -11.9587 -9.04351
ltoes -18.7087
